<svg width="40" height="37" viewBox="0 0 40 37" fill="none" xmlns="http://www.w3.org/2000/svg">
<path d="M28.1484 0.599797C27.0656 0.654485 24.1508 1.46386 22.0562 2.28417C20.7875 2.78183 20.7875 2.78183 20.5359 2.82558C20.0984 2.89667 19.0265 2.58495 17.1836 1.8412C16.2047 1.45292 15.1984 1.15761 13.7109 0.818547C13.0875 0.681829 12.0539 0.665422 11.6054 0.791204C11.425 0.840422 10.8562 0.955266 10.3422 1.04277C9.23747 1.23964 8.61403 1.43105 7.78278 1.8412C5.27263 3.0662 3.56091 4.82714 2.20466 7.58339C1.6031 8.79745 1.16013 9.98417 0.832002 11.2475C0.345283 13.1232 0.334346 16.7217 0.810127 18.9037C0.864814 19.1717 0.914033 19.4889 0.914033 19.6146C0.914033 19.8771 0.963252 20.074 1.42263 21.8842C1.84919 23.5576 1.80544 23.4209 2.62028 25.4662C3.76325 28.3373 4.12419 28.9717 6.45935 32.1928C7.41638 33.5107 7.9031 34.1123 8.60856 34.8287C9.34685 35.5834 9.94294 36.0209 10.7851 36.4365C11.7367 36.9014 12.1523 37.0053 13.0273 36.9998C14.1484 36.9998 15.0508 36.7701 16.7679 36.0482C17.8508 35.5943 17.9218 35.5725 19.8906 35.1678C20.4812 35.042 21.0281 35.0529 21.8593 35.1896C22.1437 35.2334 22.5703 35.299 22.8 35.3318C23.2648 35.3975 23.7351 35.5506 24.9492 36.0373C26.4148 36.6279 27.4484 36.8904 28.5312 36.956C30.1062 37.0545 31.6265 36.3545 33.2508 34.7959C34.9078 33.1935 36.4554 31.0006 38.0195 28.042C38.4406 27.2435 39.1133 25.6084 39.2281 25.1162C39.2773 24.9193 39.3593 24.6732 39.4195 24.5748C39.4742 24.4764 39.5234 24.3396 39.5234 24.2795C39.5234 24.0826 39.1242 23.7709 38.4187 23.4154C37.0898 22.7318 35.7828 21.5615 34.9023 20.2435C34.2734 19.2975 33.639 17.881 33.4804 17.0443C33.2125 15.6662 33.1359 14.1568 33.289 13.1068C33.3273 12.8334 33.464 12.2592 33.5953 11.8217C34.1586 9.92402 34.5468 9.16386 35.4273 8.22324C35.6953 7.94433 35.914 7.6873 35.914 7.66542C35.914 7.57245 37.2539 6.45136 37.582 6.27089C37.7625 6.16699 37.9922 6.00839 38.0906 5.90995C38.3914 5.61464 38.3476 5.4998 37.5929 4.61386C36.5812 3.42714 35.307 2.4537 33.8086 1.72636C32.8734 1.27245 32.2281 1.04823 31.3258 0.862297C30.4015 0.665422 29.0234 0.550578 28.1484 0.599797Z" fill="#717171"/>
</svg>
